<mxfile host="app.diagrams.net" modified="2024-02-02T09:45:24.110Z" agent="Mozilla/5.0 (Macintosh; Intel Mac OS X 10_15_7) AppleWebKit/605.1.15 (KHTML, like Gecko) Version/15.5 Safari/605.1.15" etag="44vOnOKaC79FaVwiUmgo" version="23.1.1" type="device">
  <diagram name="Page-1" id="GVxutM5WPWlsvHjFawSS">
    <mxGraphModel dx="658" dy="446" grid="1" gridSize="10" guides="1" tooltips="1" connect="1" arrows="1" fold="1" page="1" pageScale="1" pageWidth="827" pageHeight="1169" math="0" shadow="0">
      <root>
        <mxCell id="0" />
        <mxCell id="1" parent="0" />
        <mxCell id="GOnJYGbidh557vje_k1i-1" value="&lt;b&gt;Vue&lt;/b&gt;&lt;br&gt;Affichage&lt;br&gt;Thread repaint&lt;br&gt;&lt;span style=&quot;white-space: pre;&quot;&gt;Menu du jeu&lt;/span&gt;&lt;br&gt;" style="rounded=0;whiteSpace=wrap;html=1;" parent="1" vertex="1">
          <mxGeometry x="360" y="310" width="120" height="60" as="geometry" />
        </mxCell>
        <mxCell id="GOnJYGbidh557vje_k1i-2" value="&lt;b&gt;Contrôleur&lt;/b&gt;&lt;br&gt;Clic souris&lt;br&gt;Clic menu" style="rounded=0;whiteSpace=wrap;html=1;" parent="1" vertex="1">
          <mxGeometry x="490" y="455" width="120" height="60" as="geometry" />
        </mxCell>
        <mxCell id="GOnJYGbidh557vje_k1i-3" value="&lt;b&gt;Modèle&lt;/b&gt;&lt;br&gt;Position&lt;br&gt;Thread ligne brisée&lt;br&gt;Ligne brisée&lt;br&gt;Thread chute&lt;br&gt;Thread score" style="rounded=0;whiteSpace=wrap;html=1;" parent="1" vertex="1">
          <mxGeometry x="240" y="440" width="120" height="90" as="geometry" />
        </mxCell>
        <mxCell id="GOnJYGbidh557vje_k1i-4" value="" style="endArrow=classic;html=1;rounded=0;entryX=0.75;entryY=1;entryDx=0;entryDy=0;exitX=0.5;exitY=0;exitDx=0;exitDy=0;" parent="1" target="GOnJYGbidh557vje_k1i-1" edge="1" source="GOnJYGbidh557vje_k1i-2">
          <mxGeometry width="50" height="50" relative="1" as="geometry">
            <mxPoint x="540" y="440" as="sourcePoint" />
            <mxPoint x="590" y="390" as="targetPoint" />
          </mxGeometry>
        </mxCell>
        <mxCell id="GOnJYGbidh557vje_k1i-5" value="" style="endArrow=classic;html=1;rounded=0;exitX=0;exitY=0.5;exitDx=0;exitDy=0;" parent="1" source="GOnJYGbidh557vje_k1i-2" target="GOnJYGbidh557vje_k1i-3" edge="1">
          <mxGeometry width="50" height="50" relative="1" as="geometry">
            <mxPoint x="480" y="480" as="sourcePoint" />
            <mxPoint x="396" y="410" as="targetPoint" />
          </mxGeometry>
        </mxCell>
        <mxCell id="GOnJYGbidh557vje_k1i-8" value="" style="endArrow=classic;html=1;rounded=0;exitX=0.25;exitY=1;exitDx=0;exitDy=0;entryX=0.5;entryY=0;entryDx=0;entryDy=0;dashed=1;" parent="1" source="GOnJYGbidh557vje_k1i-1" target="GOnJYGbidh557vje_k1i-3" edge="1">
          <mxGeometry width="50" height="50" relative="1" as="geometry">
            <mxPoint x="360" y="339.5" as="sourcePoint" />
            <mxPoint x="240" y="339.5" as="targetPoint" />
          </mxGeometry>
        </mxCell>
      </root>
    </mxGraphModel>
  </diagram>
</mxfile>
